<svg width="100%" height="100%" xmlns="http://www.w3.org/2000/svg">
<symbol id="threePoints"  viewBox="0 0 19 10">

 <g>
  <title>background</title>
  <rect fill="transparent" id="canvas_background" height="12" width="21" y="-1" x="-1"/>
  <g display="none" overflow="visible" y="0" x="0" height="100%" width="100%" id="canvasGrid">
   <rect fill="url(#gridpattern)" stroke-width="0" y="0" x="0" height="100%" width="100%"/>
  </g>
 </g>
 <g>
  <title>Layer 1</title>
  <g stroke="null" transform="rotate(-0.4384583830833435 9.333169937133743,5.0103726387024805) " id="svg_15">
   <g stroke="null" transform="matrix(0.03249422724848359,0,0,-0.03533752846292243,122.37640519411416,241.04970629149847) " stroke-width="0" id="svg_9"/>
   <g stroke="#CCCCCC" transform="matrix(0.03249422724848359,0,0,-0.03533752846292243,122.37640519411416,241.04970629149847) " stroke-width="7.168" stroke-linejoin="round" stroke-linecap="round" id="svg_8"/>
   <g stroke="null" transform="matrix(0.03249422724848359,0,0,-0.03533752846292243,122.37640519411416,241.04970629149847) " id="svg_7">
    <style stroke="null" transform="translate(4.547473508864641e-13,-56.59708023071289) translate(4.547473508864641e-13,-0.000026987578166881576) translate(4.547473508864641e-13,-0.000026987578166881576) translate(4.547473508864641e-13,-0.000026987578166881576) translate(-61.54943084716797,0) translate(-0.00003668629869935103,0) translate(-0.00003668629869935103,0) translate(4.547473508864641e-13,28.298797607421875) translate(4.547473508864641e-13,-0.00021252718579489738) translate(4.547473508864641e-13,0.00026987577439285815) translate(4.547473508864641e-13,56.596954345703125) translate(4.547473508864641e-13,-0.00010120341903530061) translate(4.547473508864641e-13,-0.00010120341903530061) translate(4.547473508864641e-13,198.0897216796875) translate(4.547473508864641e-13,0.000026987578166881576) translate(4.547473508864641e-13,0.000026987578166881576) translate(4.547473508864641e-13,0.000026987578166881576) translate(4.547473508864641e-13,0.000026987578166881576) translate(4.547473508864641e-13,0.000026987578166881576) translate(4.547473508864641e-13,84.89552307128906) translate(4.547473508864641e-13,-0.00005397515633376315) translate(4.547473508864641e-13,11.54682445526123) translate(1.0524564981460571,0) translate(-0.02923557162284851,0.6235421299934387) translate(1.3376646041870117,-0.05398830771446228) translate(0.17989587783813477,3.0967326164245605) translate(-0.00015818762767594308,0) translate(0.00008788201375864446,0) translate(0.00008788201375864446,0) translate(110.58113861083984,0) translate(110.5810317993164,0) translate(-4.547473508864641e-13,-44.24718475341797) translate(-4.547473508864641e-13,0.00023208439233712852) translate(-4.547473508864641e-13,0.00023208439233712852) translate(-4.547473508864641e-13,-0.00025318298139609396) translate(-4.547473508864641e-13,0.00023208439233712852) translate(-4.547473508864641e-13,-0.00025318298139609396) translate(-4.547473508864641e-13,-265.4817199707031) translate(-4.547473508864641e-13,0.000369356683222577) translate(-4.547473508864641e-13,-0.00011717242159647867) translate(-4.547473508864641e-13,353.9754943847656) translate(-4.547473508864641e-13,0.00004219716356601566) translate(-4.547473508864641e-13,0.00004219716356601566) translate(-4.547473508864641e-13,-0.00046416878467425704) translate(-4.547473508864641e-13,0.00004219716356601566) translate(-4.547473508864641e-13,0.00004219716356601566) translate(-4.547473508864641e-13,0.3344969153404236) translate(-221.16220092773438,0) translate(-0.00012303481344133615,0) translate(0.00012303481344133615,0) translate(-0.00012303481344133615,0) translate(0.00012303481344133615,0) translate(-0.00012303481344133615,0) translate(0.00012303481344133615,0) translate(-0.00012303481344133615,0) translate(0.00012303481344133615,0) translate(-0.00012303481344133615,0) translate(3.961299419403076,0) translate(-1.3742563724517822,3.905177593231201) translate(-7532.65478515625,3368.51611328125) translate(-6.869740009307861,1.4395639896392822) translate(6.361515045166016,-0.09842389076948166) translate(0.43623554706573486,-1.1536351442337036) translate(6.7024030685424805,-13.240948677062988) translate(-196.2753448486328,1.8189894035458565e-12) translate(23.625959396362305,1.8189894035458565e-12) translate(4020.224365234375,0) translate(0,2693.1201171875) " type="text/css">.st0{fill:#000000;}</style>
    <g stroke="null" id="svg_11">
     <circle stroke="null" id="svg_12" r="55.09082" cy="6679.56608" cx="-3679.780207" class="st0" fill="currentColor"/>
     <circle stroke="null" id="svg_13" r="55.09082" cy="6679.56608" cx="-3478.871207" class="st0" fill="currentColor"/>
     <circle stroke="null" id="svg_14" r="55.09082" cy="6679.56608" cx="-3277.962207" class="st0" fill="currentColor"/>
    </g>
   </g>
  </g>
 </g>
 </symbol>
</svg>