<svg width="100%" height="100%" xmlns="http://www.w3.org/2000/svg">
<symbol id="pencil"  viewBox="0 0 24 22">
 <g>
  <title>background</title>
  <rect fill="none" id="canvas_background" height="23" width="22" y="-1" x="-1"/>
 </g>
 <g>
  <title>Layer 1</title>
  <g stroke="null" id="svg_1">
   <path stroke="null" id="svg_2" fill="currentColor" d="m5.342185,18.716696l11.761135,-11.761135l-3.102584,-3.102418l-11.761302,11.761135c-0.063117,0.050427 -0.112041,0.119555 -0.134082,0.203711l-0.914362,3.473606c-0.00167,0.006679 -0.00167,0.013692 -0.003173,0.020204c-0.003006,0.013692 -0.004842,0.02705 -0.006512,0.041243c-0.001169,0.012523 -0.001503,0.024545 -0.001503,0.037069c-0.000167,0.012857 0.000167,0.024545 0.001503,0.03757c0.00167,0.014026 0.003506,0.027718 0.006512,0.041076c0.001336,0.006679 0.001336,0.013692 0.003173,0.020204c0.001169,0.004842 0.003506,0.009184 0.005176,0.013859c0.00384,0.013024 0.00885,0.025714 0.01436,0.038405c0.004842,0.011187 0.009518,0.022375 0.015028,0.032727c0.006178,0.01102 0.012857,0.021206 0.020204,0.031558c0.006846,0.010519 0.013859,0.021039 0.021707,0.030724c0.007848,0.009852 0.016698,0.0182 0.02538,0.02705c0.00885,0.009017 0.017532,0.017532 0.027217,0.02538c0.009351,0.008015 0.01987,0.015028 0.03039,0.021874c0.010519,0.00718 0.020705,0.014026 0.032059,0.020037c0.010353,0.00551 0.021373,0.010353 0.03256,0.015028c0.01269,0.00551 0.025213,0.010519 0.038405,0.014527c0.004675,0.001503 0.009017,0.00384 0.013859,0.005176c0.006679,0.00167 0.013525,0.00167 0.020204,0.00334c0.013525,0.002839 0.02705,0.004675 0.041076,0.006178c0.012857,0.001503 0.024712,0.001837 0.037403,0.00167c0.012523,0 0.024545,-0.000167 0.037236,-0.001336c0.014026,-0.001837 0.027718,-0.003673 0.041243,-0.006512c0.006679,-0.00167 0.013692,-0.00167 0.020204,-0.00334l3.473773,-0.914195c0.084323,-0.022041 0.153618,-0.070965 0.203711,-0.134416zm-2.747927,-0.354657c-0.089332,-0.089332 -0.211559,-0.124564 -0.327941,-0.108368l0.531485,-2.01941l1.924568,1.924401l-2.019744,0.531318c0.016364,-0.116382 -0.018701,-0.238609 -0.108368,-0.327941z"/>
   <path stroke="null" id="svg_3" fill="currentColor" d="m17.63063,6.428251l-3.102418,-3.102584l1.18837,-1.18837c0,0 2.113251,0.75373 3.102418,3.102751l-1.18837,1.188203z"/>
  </g>
 </g>
 </symbol>
</svg>